<?xml version="1.0" encoding="utf-8"?>
<!-- Generator: Adobe Illustrator 22.1.0, SVG Export Plug-In . SVG Version: 6.00 Build 0)  -->
<svg version="1.1" id="Слой_1" xmlns="http://www.w3.org/2000/svg" xmlns:xlink="http://www.w3.org/1999/xlink" x="0px" y="0px"
	 viewBox="0 0 21 22" style="enable-background:new 0 0 21 22;" xml:space="preserve" fill="#81B3D2">
<path d="M16.4,2.1h2.8c1,0,1.7,0.8,1.7,1.8v16.3c0,1-0.8,1.8-1.7,1.8H1.8c-1,0-1.8-0.8-1.8-1.8V3.9c0-1,0.8-1.8,1.8-1.8h2.8V0.7
	C4.6,0.3,4.9,0,5.3,0c0.4,0,0.7,0.3,0.7,0.7v1.4h3.9V0.7c0-0.4,0.3-0.7,0.7-0.7c0.4,0,0.7,0.3,0.7,0.7v1.4h3.9V0.7
	c0-0.4,0.3-0.7,0.7-0.7c0.4,0,0.7,0.3,0.7,0.7V2.1z M19.6,20.5c0.1-0.1,0.1-0.2,0.1-0.3h0V3.9c0-0.3-0.2-0.5-0.4-0.5h-2.8v1.4
	c0,0.4-0.3,0.7-0.7,0.7c-0.4,0-0.7-0.3-0.7-0.7V3.4h-3.9v1.4c0,0.4-0.3,0.7-0.7,0.7c-0.4,0-0.7-0.3-0.7-0.7V3.4H5.9v1.4
	c0,0.4-0.3,0.7-0.7,0.7c-0.4,0-0.7-0.3-0.7-0.7V3.4H1.8c-0.2,0-0.4,0.2-0.4,0.5v16.3c0,0.2,0.2,0.5,0.4,0.5h17.5
	C19.4,20.7,19.5,20.6,19.6,20.5z"/>
<path d="M4.6,8.3h2.6v2.1H4.6V8.3z M4.6,11.7h2.6v2.1H4.6V11.7z M7.2,15.2H4.6v2.1h2.6V15.2z M9.2,15.2h2.6v2.1H9.2V15.2z
	 M11.8,11.7H9.2v2.1h2.6V11.7z M9.2,8.3h2.6v2.1H9.2V8.3z M16.4,15.2h-2.6v2.1h2.6V15.2z M13.8,11.7h2.6v2.1h-2.6V11.7z M16.4,8.3
	h-2.6v2.1h2.6V8.3z"/>
</svg>
