<svg xmlns="http://www.w3.org/2000/svg" viewBox="0 0 21 22" width="21" height="22" fill="#81B3D2"><path d="M16.4 2.1h2.8c1 0 1.7.8 1.7 1.8v16.3c0 1-.8 1.8-1.7 1.8H1.8c-1 0-1.8-.8-1.8-1.8V3.9c0-1 .8-1.8 1.8-1.8h2.8V.7c0-.4.3-.7.7-.7.4 0 .7.3.7.7v1.4h3.9V.7c0-.4.3-.7.7-.7.4 0 .7.3.7.7v1.4h3.9V.7c0-.4.3-.7.7-.7.4 0 .7.3.7.7v1.4zm3.2 18.4c.1-.1.1-.2.1-.3V3.9c0-.3-.2-.5-.4-.5h-2.8v1.4c0 .4-.3.7-.7.7-.4 0-.7-.3-.7-.7V3.4h-3.9v1.4c0 .4-.3.7-.7.7-.4 0-.7-.3-.7-.7V3.4H5.9v1.4c0 .4-.3.7-.7.7-.4 0-.7-.3-.7-.7V3.4H1.8c-.2 0-.4.2-.4.5v16.3c0 .2.2.5.4.5h17.5c.1 0 .2-.1.3-.2z"/><path d="M4.6 8.3h2.6v2.1H4.6V8.3zm0 3.4h2.6v2.1H4.6v-2.1zm2.6 3.5H4.6v2.1h2.6v-2.1zm2 0h2.6v2.1H9.2v-2.1zm2.6-3.5H9.2v2.1h2.6v-2.1zM9.2 8.3h2.6v2.1H9.2V8.3zm7.2 6.9h-2.6v2.1h2.6v-2.1zm-2.6-3.5h2.6v2.1h-2.6v-2.1zm2.6-3.4h-2.6v2.1h2.6V8.3z"/></svg>