<svg xmlns="http://www.w3.org/2000/svg" xmlns:xlink="http://www.w3.org/1999/xlink"><symbol id="calendar" viewBox="0 0 21 23"><path fill-rule="evenodd" clip-rule="evenodd" d="M16.4 3.02h2.85c.97 0 1.75.83 1.75 1.84v16.3A1.8 1.8 0 0119.25 23H1.75A1.8 1.8 0 010 21.16V4.86a1.8 1.8 0 011.75-1.84h2.84V1.65c0-.38.3-.7.66-.7.36 0 .66.32.66.7v1.37h3.93V1.65c0-.38.3-.7.66-.7.36 0 .66.32.66.7v1.37h3.93V1.65c0-.38.3-.7.66-.7.36 0 .66.32.66.7v1.37zm3.16 18.46c.09-.08.13-.2.13-.32V4.86c0-.25-.2-.46-.44-.46h-2.84v1.38c0 .38-.3.69-.66.69a.67.67 0 01-.65-.69V4.4h-3.94v1.38c0 .38-.3.69-.66.69a.67.67 0 01-.65-.69V4.4H5.9v1.38c0 .38-.3.69-.66.69a.67.67 0 01-.66-.69V4.4H1.75a.45.45 0 00-.44.46v16.3c0 .25.2.46.44.46h17.5c.12 0 .23-.05.31-.14z"/><path fill-rule="evenodd" clip-rule="evenodd" d="M4.6 9.23h2.62v2.06H4.59V9.23zm0 3.44h2.62v2.07H4.59v-2.07zm2.62 3.44H4.59v2.07h2.63V16.1zm1.97 0h2.62v2.07H9.2V16.1zm2.62-3.44H9.2v2.07h2.62v-2.07zM9.2 9.23h2.62v2.06H9.2V9.23zm7.22 6.88h-2.63v2.07h2.63V16.1zm-2.63-3.44h2.63v2.07h-2.63v-2.07zm2.63-3.44h-2.63v2.06h2.63V9.23z"/></symbol><symbol id="fb" viewBox="0 0 12 22"><path d="M12 4V0H8a4 4 0 00-4 4v4H0v4h4v10h4V12h4V8H8V4h4z"/></symbol><symbol id="food" viewBox="0 0 75 70"><path fill-rule="evenodd" clip-rule="evenodd" d="M8.98 31.54h60.88c.04-.61.06-1.24.06-1.87l-.03-1.17C69.23 12.66 55.2 0 37.95 0 20.72 0 6.68 12.66 6.01 28.5a26.88 26.88 0 00.04 3.04h2.93zm12.98 10.93l-5.33-4.06-5.32 4.06-6.19-4.72 1.72-2.46 4.47 3.4 5.33-4.05 5.32 4.05 5.32-4.05 5.33 4.05 5.33-4.05 5.33 4.05 5.33-4.05 5.32 4.05 5.33-4.05 5.34 4.06 4.47-3.4 1.72 2.45-6.2 4.71-5.33-4.05-5.33 4.06-5.32-4.06-5.33 4.06-5.33-4.06-5.33 4.06-5.33-4.06-5.32 4.06zM5.06 46.7h65.8a4.24 4.24 0 014.13 4.31v3.5a4.24 4.24 0 01-4.14 4.32h-.93v1.05c0 5.54-4.34 10.07-9.65 10.07H15.63c-5.3 0-9.65-4.53-9.65-10.07v-1.05h-.93a4.24 4.24 0 01-4.13-4.31v-3.5a4.24 4.24 0 014.13-4.32zm55.22 20.2c3.7 0 6.73-3.14 6.73-7.02v-1.05H8.9v1.05c0 3.88 3.02 7.03 6.73 7.03h44.65zm11.8-12.38c0 .69-.57 1.27-1.23 1.27H5.05c-.66 0-1.22-.58-1.22-1.27v-3.5c0-.7.56-1.28 1.22-1.28h65.8c.66 0 1.22.58 1.22 1.27v3.5zm-5.1-26.03C66.3 14.36 53.53 3.04 37.94 3.04 22.36 3.04 9.6 14.36 8.93 28.5h58.04z"/><path d="M37.95 17.29c1.08 0 1.95-.9 1.95-2.03 0-1.12-.87-2.03-1.95-2.03-1.07 0-1.94.9-1.94 2.03 0 1.12.87 2.03 1.94 2.03zm-7.78-5.03c1.08 0 1.95-.9 1.95-2.03 0-1.12-.87-2.03-1.95-2.03-1.07 0-1.94.9-1.94 2.03 0 1.12.87 2.03 1.94 2.03zm15.56 0c1.08 0 1.95-.9 1.95-2.03 0-1.12-.87-2.03-1.95-2.03-1.07 0-1.94.9-1.94 2.03 0 1.12.87 2.03 1.94 2.03z"/></symbol><symbol id="good" viewBox="0 0 64 76"><path d="M61.1 22.5H36.3c13.81-6.9 14.92-11.25 14.41-13.68-1.16-3.97-5.7-7.03-10-5.41-5.57 2.09-7.14 10.39-8.65 16.39-1.92-6.07-3.78-13.82-8.13-17.74A7.31 7.31 0 0018.17.03c-4.02.36-9.8 5.38-7.45 10.98 2.25 5.38 9.68 8.78 14.58 11.5H2.88A2.88 2.88 0 000 25.36v11.32c0 1.59 1.3 2.87 2.88 2.87h.27V76H61V39.56h.1a2.88 2.88 0 002.89-2.87V25.37a2.89 2.89 0 00-2.88-2.87zM42.4 5.94c2.1-.3 4.99 1.3 5.26 3.21.4 2.76-3.4 5.26-5.09 6.42-2.52 1.75-4.93 2.65-7.28 4.06.88-3.7 2.54-13.01 7.11-13.69zm-22.88 9.97c-2.22-1.48-6.54-4.43-6.44-7.77.11-3.6 5.74-6.57 8.82-3.89 3.85 3.38 5.7 11.11 7.11 16.56-3.25-1.54-6.32-2.79-9.49-4.9zm5.97 57.12H6.14V39.56H25.5v33.47zm0-36.5H3.05v-11H25.5v11zm10.16 0v36.5h-7.17v-47.5h7.17v11zM58 73.03H38.64V39.56h19.37v33.47zm2.92-36.5H38.64v-11h22.3v11z"/></symbol><symbol id="house" viewBox="0 0 75 72"><path fill-rule="evenodd" clip-rule="evenodd" d="M45.66 65.03h-16V41.21h16v23.82zm-2.94-20.9H32.59v17.98h10.13V44.13z"/><path fill-rule="evenodd" clip-rule="evenodd" d="M72.77 39.25l2.08-2.06-9.91-9.87V0H51.13v13.57L37.5 0 .15 37.19l2.08 2.06 7.83-7.8v37.63H6.12V72H70v-2.92h-5.06V31.46l7.83 7.8zM62 69.08H13V28.53L37.5 4.15 62 28.53v40.55zm-7.94-52.59L62 24.4V2.92h-7.94V16.5z"/><path fill-rule="evenodd" clip-rule="evenodd" d="M37.66 34.8a7.73 7.73 0 01-7.75-7.72 7.73 7.73 0 017.75-7.71 7.73 7.73 0 017.75 7.71 7.73 7.73 0 01-7.75 7.71zm4.97-7.72a4.96 4.96 0 00-4.97-4.95 4.96 4.96 0 104.97 4.95zM17.05 41.21h3v3.92h-3V41.2zm8.94 0h-3v3.92h3V41.2zm-8.94 5.97h3v3.92h-3v-3.92zm8.94 0h-3v3.92h3v-3.92zm23-5.97h3v3.92h-3V41.2zm8.94 0h-3v3.92h3V41.2zM49 47.18h3v3.92h-3v-3.92zm8.94 0h-3v3.92h3v-3.92z"/></symbol><symbol id="teaser-bottom" viewBox="0 0 1200 57"><path d="M0 57V0l250 24V0l350 57L950 0v24l250-24v57H0z"/></symbol><symbol id="twitter" viewBox="0 0 17 16"><path d="M10.95 1.14a3.1 3.1 0 013.58 1.18c.67-.23 1.33-.48 2-.7a2.34 2.34 0 01-.85 1.76c.69.17 1.3-.49 1.3-.49-.16 1-1 1.79-1.56 2.03C15.2 11.67 12.25 16.13 5.34 16H4.9c-.41 0-4.17-.46-4.9-1.89 2.27.2 3.9-.42 4.7-1.18-.97-.3-2.69-.47-2.99-2.95.35.11.57.23 1.2.12C1.7 9.25.36 8.53.44 6.33a1.9 1.9 0 001.34.47c-.7-.24-1.97-3.36-.9-4.95C2.7 3.7 4.62 5.45 8.04 5.62c.2-2.29 1.13-3.83 2.9-4.48z"/></symbol><symbol id="youtube" viewBox="0 0 20 16"><path fill-rule="evenodd" clip-rule="evenodd" d="M3 0h14a3 3 0 013 3v10a3 3 0 01-3 3H3a3 3 0 01-3-3V3a3 3 0 013-3zm3.03 4v8L15 8 6.03 4z"/></symbol></svg>